<svg preserveAspectRatio="none" width="100%" height="100%" overflow="visible" style="display: block;" viewBox="0 0 58 58" fill="none" xmlns="http://www.w3.org/2000/svg">
<g id="Group 1321315565">
<circle id="Category icon backing / White-label ready" cx="29" cy="29" r="28.5" fill="var(--fill-0, #F7F0E4)" stroke="var(--stroke-0, #EAD7B8)"/>
<g id="Category icon art / White-label ready">
<path id="Vector" d="M14.6653 20.5973L29.0005 14.1712L43.3358 20.5973V38.3928L29.0005 44.8189L14.6653 38.3928V20.5973Z" fill="var(--fill-0, #F7F0E4)" stroke="var(--stroke-0, #113E3C)" stroke-width="2.1" stroke-linecap="round" stroke-linejoin="round"/>
<path id="Vector_2" d="M19.1145 24.0575L29.0009 19.6087L38.8873 24.0575V34.9325L29.0009 39.3814L19.1145 34.9325V24.0575Z" fill="var(--fill-0, #37C6C7)" stroke="var(--stroke-0, #113E3C)" stroke-width="1.95" stroke-linecap="round" stroke-linejoin="round"/>
<path id="Vector_3" d="M23.0676 29.4954H34.9313M25.0449 33.4499H32.954" stroke="var(--stroke-0, #F7F0E4)" stroke-width="2.1" stroke-linecap="round" stroke-linejoin="round"/>
<path id="Vector_4" d="M13.1809 16.1481C17.6298 12.6879 22.573 12.6879 26.0332 15.6538" stroke="var(--stroke-0, #6EA36A)" stroke-width="2.1" stroke-linecap="round" stroke-linejoin="round"/>
<path id="Vector_5" d="M41.3576 19.6065C42.7226 19.6065 43.8292 18.5 43.8292 17.1349C43.8292 15.7699 42.7226 14.6634 41.3576 14.6634C39.9926 14.6634 38.886 15.7699 38.886 17.1349C38.886 18.5 39.9926 19.6065 41.3576 19.6065Z" fill="var(--fill-0, #F3D66B)"/>
</g>
</g>
</svg>
