<svg xmlns="http://www.w3.org/2000/svg" width="304.041" height="176.887" viewBox="0 0 304.041 176.887"><defs><style>.a{fill:#fff;}</style></defs><g transform="translate(0 115.466)"><path class="a" d="M48.308,271.7v.388a4.912,4.912,0,0,0-1.9.776,6.741,6.741,0,0,0-1.639,1.9,24.771,24.771,0,0,0-1.682,3.839l-9.7,28.64H33.04L24.2,278.6h-.129l-9.619,28.64H14.1l-9.877-31.53A5.461,5.461,0,0,0,2.933,273.3a3.444,3.444,0,0,0-1.38-.949A7.259,7.259,0,0,0,0,272.088V271.7H10.74v.388a2.9,2.9,0,0,0-2.113.863,2.645,2.645,0,0,0-.733,1.855,7.624,7.624,0,0,0,.388,2.113l7.333,23.421H15.7l7.85-23.421-.345-1.078a6.285,6.285,0,0,0-1.423-2.588,3.844,3.844,0,0,0-2.933-1.165V271.7H29.934v.388a2.747,2.747,0,0,0-2.459.949,3.362,3.362,0,0,0-.561,1.725,7.457,7.457,0,0,0,.345,2.113L34.506,300.3h.086l7.376-21.7a13.545,13.545,0,0,0,.6-2.07,9.618,9.618,0,0,0,.259-1.984c0-1.078-.216-1.725-.69-1.984a5.275,5.275,0,0,0-2.243-.474V271.7Z" transform="translate(0 -269.975)"/><path class="a" d="M143.973,287.573v-11.6a4.093,4.093,0,0,0-.906-2.76,3.468,3.468,0,0,0-2.847-1.078v-.388h11.042v.388a3.468,3.468,0,0,0-2.847,1.078,4.211,4.211,0,0,0-.906,2.8v26.225c0,2.545,1.251,3.8,3.709,3.8v.388H140.178v-.388a3.389,3.389,0,0,0,3.753-3.753v-13.63H124.046v13.544a3.678,3.678,0,0,0,1.035,2.8,3.86,3.86,0,0,0,2.76.992v.388H116.8v-.388a3.721,3.721,0,0,0,2.76-.992,3.81,3.81,0,0,0,.949-2.8V275.97c0-2.588-1.251-3.882-3.709-3.882V271.7h11.042v.388A3.468,3.468,0,0,0,125,273.167a4.211,4.211,0,0,0-.906,2.8v11.6Z" transform="translate(-66.421 -269.975)"/><path class="a" d="M215.556,271.643v.388a4.191,4.191,0,0,0-2.631.863,3.45,3.45,0,0,0-1.078,2.89v26.311a3.416,3.416,0,0,0,1.165,2.89,4.115,4.115,0,0,0,2.588.906v.388h-11v-.388a4.155,4.155,0,0,0,2.588-.863,3.544,3.544,0,0,0,1.078-2.933V275.784a3.528,3.528,0,0,0-1.078-2.976,4.4,4.4,0,0,0-2.588-.82V271.6h10.956Z" transform="translate(-116.351 -269.918)"/><path class="a" d="M266.481,276.2h-.388c-.173-2.243-.819-3.709-1.984-4.4a8.509,8.509,0,0,0-4.227-.992h-6.9V299.92c0,2.459,1.251,3.753,3.753,3.8v.388H245.691v-.388a4.5,4.5,0,0,0,2.631-.906,3.45,3.45,0,0,0,1.078-2.89V270.805h-6.9a8.394,8.394,0,0,0-4.227.992c-1.121.647-1.812,2.113-1.984,4.4H235.9v-8.5h.388a6.273,6.273,0,0,0,.647.863,2.393,2.393,0,0,0,.733.474,5.911,5.911,0,0,0,1.035.3,12.585,12.585,0,0,0,1.423.086H262.6a4,4,0,0,0,3.494-1.725h.388Z" transform="translate(-134.15 -267.7)"/><path class="a" d="M312.6,272.088V271.7h20.66v5.478h-.345q0-4.4-5.823-4.4h-7.246v15.743h6.341a9.169,9.169,0,0,0,3.364-.6,2.967,2.967,0,0,0,1.682-2.8h.345v7.85h-.259a3.809,3.809,0,0,0-.82-2.07,3.229,3.229,0,0,0-1.165-.949,2.474,2.474,0,0,0-1.035-.216,11.767,11.767,0,0,0-1.768-.129h-6.686v12.336a5.379,5.379,0,0,0,.518,2.415c.345.69,1.165.992,2.459.992H328a7.066,7.066,0,0,0,3.062-.561,4.427,4.427,0,0,0,1.9-1.51,8.408,8.408,0,0,0,1.165-2.329h.345l-1.208,5.435H312.6v-.388h.474a3.277,3.277,0,0,0,2.157-.906,3.682,3.682,0,0,0,1.078-2.933V276.013a5.163,5.163,0,0,0-.733-2.76,2.677,2.677,0,0,0-2.5-1.165Z" transform="translate(-177.768 -269.975)"/><path class="a" d="M424.359,277.362h-.388a7.417,7.417,0,0,0-2.2-4.4,6.664,6.664,0,0,0-4.917-1.9,6.485,6.485,0,0,0-3.537.949A6.355,6.355,0,0,0,410.9,274.6a7.974,7.974,0,0,0-.863,3.709,7.666,7.666,0,0,0,.518,2.89,6.441,6.441,0,0,0,1.51,2.243,12.815,12.815,0,0,0,2.329,1.812c.906.561,2.114,1.251,3.623,2.113a27.238,27.238,0,0,1,5.952,4.184,7.55,7.55,0,0,1,2.113,5.693,9.021,9.021,0,0,1-1.121,4.27,8.647,8.647,0,0,1-3.451,3.364,11.631,11.631,0,0,1-5.737,1.337,14.494,14.494,0,0,1-3.8-.474,20.584,20.584,0,0,1-3.364-1.294,2.931,2.931,0,0,0-.949-.216.625.625,0,0,0-.647.345,10.733,10.733,0,0,0-.431,1.51H406.2v-8.67h.388a9.944,9.944,0,0,0,3.278,5.78,9.31,9.31,0,0,0,5.952,1.941,8.063,8.063,0,0,0,4.227-.992,5.1,5.1,0,0,0,2.2-2.415,7.5,7.5,0,0,0,.6-2.847,6.763,6.763,0,0,0-1.768-4.788,21,21,0,0,0-5.392-3.8c-1.682-.906-2.89-1.6-3.709-2.113a18.538,18.538,0,0,1-2.458-1.941,9.623,9.623,0,0,1-1.984-2.847,9.512,9.512,0,0,1,.561-8.454,9.444,9.444,0,0,1,3.666-3.58,10.642,10.642,0,0,1,5.392-1.337,15.324,15.324,0,0,1,4.7.776,2.273,2.273,0,0,0,.992.173c.518,0,.863-.345,1.078-1.078h.388v7.462Z" transform="translate(-230.995 -268.951)"/><path class="a" d="M473.751,270.7l10.395,29.718a15.773,15.773,0,0,0,1.553,3.364,3.415,3.415,0,0,0,1.38,1.294,5.789,5.789,0,0,0,1.725.345v.388H477.461v-.388a8.356,8.356,0,0,0,2.674-.345c.647-.216.949-.82.949-1.768a7.211,7.211,0,0,0-.431-2.157,1.1,1.1,0,0,1-.086-.3l-3.105-9.187H465.47l-2.761,8.54a9.339,9.339,0,0,0-.561,2.8,2.161,2.161,0,0,0,.733,1.941,3.865,3.865,0,0,0,2.07.474v.388H456.8v-.388a4.32,4.32,0,0,0,2.8-1.337,9.937,9.937,0,0,0,1.812-3.537l9.791-29.848Zm-7.893,19.755H476.9l-5.65-16.477h-.086Z" transform="translate(-259.77 -269.406)"/><path class="a" d="M570.282,271.7v.388a7.215,7.215,0,0,0-2.07.518A2.482,2.482,0,0,0,567,273.943a7.266,7.266,0,0,0-.431,2.89v30.408h-.216l-26.613-29.718v21.351a28.723,28.723,0,0,0,.216,3.968,4.636,4.636,0,0,0,.6,1.855,3.716,3.716,0,0,0,3.019,1.337v.388h-8.67v-.388a4.657,4.657,0,0,0,2.286-.6,3.3,3.3,0,0,0,1.165-2.027,22.129,22.129,0,0,0,.345-4.443V276.315l-1.165-1.294a9.859,9.859,0,0,0-2.458-2.2,8.987,8.987,0,0,0-2.286-.69v-.388h6.513l26.225,29.373V278.731a25.626,25.626,0,0,0-.216-3.753,3.03,3.03,0,0,0-1.078-1.984,4.157,4.157,0,0,0-2.717-.819v-.388h8.756Z" transform="translate(-302.99 -269.975)"/><path class="a" d="M627.4,272.088V271.7h13.371a27.805,27.805,0,0,1,5.176.474,18.725,18.725,0,0,1,4.227,1.294,16.256,16.256,0,0,1,3.235,1.768,18.493,18.493,0,0,1,2.329,1.941,17.959,17.959,0,0,1,2.8,3.666,16.728,16.728,0,0,1,1.725,4.27,18.268,18.268,0,0,1,.561,4.615,17.143,17.143,0,0,1-.561,4.529,15.38,15.38,0,0,1-1.639,3.968,15.808,15.808,0,0,1-2.545,3.321,17.632,17.632,0,0,1-3.408,2.674,16.285,16.285,0,0,1-3.839,1.6,23.273,23.273,0,0,1-5.866.6H627.4v-.388h.474a2.653,2.653,0,0,0,2.416-1.208,4.825,4.825,0,0,0,.819-2.588V276.056a4.884,4.884,0,0,0-.431-2.2,2.871,2.871,0,0,0-1.165-1.294,3.408,3.408,0,0,0-1.639-.388H627.4Zm7.289,1.251v27.475a5.442,5.442,0,0,0,.647,2.976,3.176,3.176,0,0,0,2.027,1.251,22.256,22.256,0,0,0,4.011.3,24.164,24.164,0,0,0,6.34-.733,10.947,10.947,0,0,0,5-3.321,14.455,14.455,0,0,0,2.89-4.658,18.1,18.1,0,0,0,1.078-6.686,22.823,22.823,0,0,0-.863-6.125,15.8,15.8,0,0,0-2.674-5.392,14.361,14.361,0,0,0-5.133-4.184,17.644,17.644,0,0,0-7.591-1.51A50.132,50.132,0,0,0,634.689,273.339Z" transform="translate(-356.786 -269.975)"/></g><g transform="translate(4.831 166.319)"><path class="a" d="M11.2,396.02h.129a.776.776,0,0,0,.647-.3,1.181,1.181,0,0,0,.3-.819v-7.548a1,1,0,0,0-.3-.863,1.172,1.172,0,0,0-.733-.259V386.1h3.192v.129a1.089,1.089,0,0,0-.733.259,1.012,1.012,0,0,0-.345.863v7.333a1.106,1.106,0,0,0,.345.906,1.717,1.717,0,0,0,1.078.259h.863a2.518,2.518,0,0,0,.906-.129,1.007,1.007,0,0,0,.518-.431,3.212,3.212,0,0,0,.388-.776h.129L17.2,396.15h-6Z" transform="translate(-11.2 -385.884)"/><path class="a" d="M55.677,396.15H53.564v-1.639l-.043-.043a2.907,2.907,0,0,1-1.294,1.466,3.782,3.782,0,0,1-1.812.474,3.583,3.583,0,0,1-1.9-.518,3.468,3.468,0,0,1-1.251-1.251,3.391,3.391,0,0,1-.345-1.121,10.6,10.6,0,0,1-.086-1.208v-4.96a1.234,1.234,0,0,0-.173-.733c-.129-.216-.388-.345-.863-.345v-.129h3.149v.129c-.474.043-.776.173-.863.388a1.322,1.322,0,0,0-.173.733v4.874a5.688,5.688,0,0,0,.3,2.2,2.739,2.739,0,0,0,.992,1.208,2.448,2.448,0,0,0,1.467.431,3.187,3.187,0,0,0,.82-.129,4.1,4.1,0,0,0,.906-.388,3.068,3.068,0,0,0,1.251-2.717v-5.521a1.418,1.418,0,0,0-.173-.733,1.119,1.119,0,0,0-.906-.388V386.1h3.192v.129a1.119,1.119,0,0,0-.906.388,1.454,1.454,0,0,0-.216.733v7.591a1.142,1.142,0,0,0,.129.6.577.577,0,0,0,.345.3c.173.043.345.13.561.173Z" transform="translate(-30.876 -385.884)"/><path class="a" d="M98.844,386.2v.129a1.909,1.909,0,0,0-.647.216,2.318,2.318,0,0,0-.776.733,5.234,5.234,0,0,0-.561.69l-2.113,2.89,2.545,3.8a4.519,4.519,0,0,0,.863,1.035,1.621,1.621,0,0,0,.69.388,2.61,2.61,0,0,0,.647.086v.129H95.739v-.129a.893.893,0,0,0,.647-.216.7.7,0,0,0,.129-.388,1.377,1.377,0,0,0-.259-.69l-2.027-3.062-2.027,2.8a1.6,1.6,0,0,0-.388.906.7.7,0,0,0,.173.431c.129.173.345.216.69.216v.129H89.7v-.129a1.835,1.835,0,0,0,1.51-.733,5.087,5.087,0,0,1,.474-.561l2.415-3.364-2.459-3.753a3.86,3.86,0,0,0-.949-1.122,1.556,1.556,0,0,0-.863-.259v-.129h3.58v.129c-.345,0-.561.086-.647.216a.554.554,0,0,0-.173.431,1.839,1.839,0,0,0,.345.906l1.812,2.717,1.984-2.717a1.748,1.748,0,0,0,.431-.949.49.49,0,0,0-.129-.345c-.086-.129-.3-.216-.647-.216v-.129h2.459Z" transform="translate(-55.841 -385.941)"/><path class="a" d="M142.977,396.15h-2.113v-1.639l-.043-.043a2.907,2.907,0,0,1-1.294,1.466,3.782,3.782,0,0,1-1.812.474,3.583,3.583,0,0,1-1.9-.518,3.468,3.468,0,0,1-1.251-1.251,3.392,3.392,0,0,1-.345-1.121,10.6,10.6,0,0,1-.086-1.208v-4.96a1.234,1.234,0,0,0-.173-.733c-.129-.216-.388-.345-.863-.345v-.129h3.149v.129c-.474.043-.776.173-.863.388a1.321,1.321,0,0,0-.173.733v4.874a5.688,5.688,0,0,0,.3,2.2,2.739,2.739,0,0,0,.992,1.208,2.448,2.448,0,0,0,1.466.431,3.187,3.187,0,0,0,.82-.129,4.1,4.1,0,0,0,.906-.388,3.068,3.068,0,0,0,1.251-2.717v-5.521a1.418,1.418,0,0,0-.173-.733,1.118,1.118,0,0,0-.906-.388V386.1h3.192v.129a1.118,1.118,0,0,0-.906.388,1.454,1.454,0,0,0-.216.733v7.591a1.142,1.142,0,0,0,.129.6.577.577,0,0,0,.345.3c.173.043.345.13.561.173v.129Z" transform="translate(-80.521 -385.884)"/><path class="a" d="M177.629,386.329H177.5V386.2h3.451a3.5,3.5,0,0,1,1.423.259,2.444,2.444,0,0,1,.906.647,2.684,2.684,0,0,1,.474.82,3.221,3.221,0,0,1,.129.863,2.964,2.964,0,0,1-.216,1.035,2.655,2.655,0,0,1-.69.863,2.378,2.378,0,0,1-1.165.474v.043a3.985,3.985,0,0,1,1.639,1.725l.906,1.51a4.009,4.009,0,0,0,.992,1.294,1.339,1.339,0,0,0,.733.3v.129h-1.812c-.086-.086-.129-.216-.216-.3a1.828,1.828,0,0,1-.216-.3c-.043-.086-.129-.172-.216-.3s-.129-.216-.173-.216l-1.208-1.984a6.589,6.589,0,0,0-.733-.992,3.581,3.581,0,0,0-.69-.561,2.055,2.055,0,0,0-.6-.216,2.651,2.651,0,0,0-.6-.043v3.666a.959.959,0,0,0,1.078,1.078v.129H177.5v-.129a.92.92,0,0,0,.518-.129.761.761,0,0,0,.388-.345,1.428,1.428,0,0,0,.173-.647v-7.462a.908.908,0,0,0-.949-1.078Zm1.984,4.745h.561a3.572,3.572,0,0,0,1.466-.259,1.719,1.719,0,0,0,.82-.733,2.328,2.328,0,0,0,.259-1.165,3.24,3.24,0,0,0-.216-1.121,2.367,2.367,0,0,0-.776-.949,2.61,2.61,0,0,0-1.51-.388,2.294,2.294,0,0,0-.6.043Z" transform="translate(-105.771 -385.941)"/><path class="a" d="M224.03,386.2v.129a1.49,1.49,0,0,0-.776.216,1.934,1.934,0,0,0-.561.431c-.129.129-.259.345-.431.518l-2.329,3.494V395a1.074,1.074,0,0,0,.3.82,1.55,1.55,0,0,0,.776.3v.129h-3.149v-.129a1.2,1.2,0,0,0,.776-.259,1.1,1.1,0,0,0,.3-.82V391.2l-2.545-3.8a2.345,2.345,0,0,0-.733-.82,1.7,1.7,0,0,0-.863-.216v-.129h3.537v.129a.869.869,0,0,0-.69.216.775.775,0,0,0-.173.388,1.3,1.3,0,0,0,.259.6l2.07,3.106,1.855-2.76a1.885,1.885,0,0,0,.431-.949.425.425,0,0,0-.129-.345.758.758,0,0,0-.216-.172c-.086-.043-.173-.043-.259-.086v-.129h2.545Z" transform="translate(-126.982 -385.941)"/><path class="a" d="M295.517,386.2v.129a1.462,1.462,0,0,0-.647.259,1.488,1.488,0,0,0-.431.561,4.7,4.7,0,0,0-.388.906c-.043.043-.043.086-.086.172l-2.89,8.281h-.086l-3.408-8.971a.134.134,0,0,0-.043-.086,2.093,2.093,0,0,0-.518-.863,1.244,1.244,0,0,0-.82-.259V386.2h3.278v.129a1.975,1.975,0,0,0-.647.173c-.173.086-.259.259-.259.6a2.119,2.119,0,0,0,.129.518c0,.043,0,.043.043.086v.043l2.631,7.031h.043l2.243-6.513a3.031,3.031,0,0,0,.259-.992.869.869,0,0,0-.216-.69,1.471,1.471,0,0,0-.69-.172v-.129h2.5Z" transform="translate(-167.585 -385.941)"/><path class="a" d="M331.849,386.2v.129a1.2,1.2,0,0,0-.776.259.96.96,0,0,0-.3.82V395a.978.978,0,0,0,.345.82,1.171,1.171,0,0,0,.733.259v.129H328.7v-.129a1.015,1.015,0,0,0,.733-.259,1,1,0,0,0,.3-.863v-7.548a1,1,0,0,0-.3-.863,1.129,1.129,0,0,0-.733-.216V386.2Z" transform="translate(-191.754 -385.941)"/><path class="a" d="M357.7,396.02h.129a.776.776,0,0,0,.647-.3,1.181,1.181,0,0,0,.3-.819v-7.548a1,1,0,0,0-.3-.863,1.172,1.172,0,0,0-.733-.259V386.1h3.192v.129a1.171,1.171,0,0,0-.733.259,1.012,1.012,0,0,0-.345.863v7.333a1.106,1.106,0,0,0,.345.906,1.717,1.717,0,0,0,1.078.259h.863a2.518,2.518,0,0,0,.906-.129,1.007,1.007,0,0,0,.518-.431,3.208,3.208,0,0,0,.388-.776h.129l-.388,1.639h-5.952v-.129Z" transform="translate(-208.246 -385.884)"/><path class="a" d="M393.2,396.02h.129a.776.776,0,0,0,.647-.3,1.181,1.181,0,0,0,.3-.819v-7.548a1,1,0,0,0-.3-.863,1.171,1.171,0,0,0-.733-.259V386.1h3.192v.129a1.089,1.089,0,0,0-.733.259,1.012,1.012,0,0,0-.345.863v7.333a1.106,1.106,0,0,0,.345.906,1.717,1.717,0,0,0,1.078.259h.863a2.518,2.518,0,0,0,.906-.129,1.007,1.007,0,0,0,.518-.431,3.212,3.212,0,0,0,.388-.776h.129l-.388,1.639h-5.952v-.129Z" transform="translate(-228.434 -385.884)"/><path class="a" d="M432.56,385.9l2.976,8.583a5.167,5.167,0,0,0,.431.949.825.825,0,0,0,.388.388,1.552,1.552,0,0,0,.474.086v.129h-3.278v-.129a3.215,3.215,0,0,0,.776-.086q.259-.065.259-.518a1.9,1.9,0,0,0-.129-.6c0-.043-.043-.043-.043-.086l-.906-2.674h-3.451l-.776,2.458a2.314,2.314,0,0,0-.173.82.625.625,0,0,0,.216.561,1.143,1.143,0,0,0,.6.129v.129H427.6v-.129a1.335,1.335,0,0,0,.82-.388,2.316,2.316,0,0,0,.518-1.035l2.8-8.583Zm-2.243,5.693h3.192l-1.639-4.745h-.043Z" transform="translate(-247.996 -385.771)"/><path class="a" d="M475.062,387.813h-.129a1.874,1.874,0,0,0-.647-1.251,1.949,1.949,0,0,0-1.423-.561,2.048,2.048,0,0,0-1.035.259,1.883,1.883,0,0,0-.69.733,2.216,2.216,0,0,0-.259,1.078,2.333,2.333,0,0,0,.129.82,1.706,1.706,0,0,0,.431.647,4.791,4.791,0,0,0,.69.518c.259.172.6.345,1.035.6a8.5,8.5,0,0,1,1.725,1.208,2.25,2.25,0,0,1,.6,1.639,2.645,2.645,0,0,1-1.337,2.243,3.18,3.18,0,0,1-1.639.388,3.884,3.884,0,0,1-1.078-.129,4.4,4.4,0,0,1-.949-.388,1.7,1.7,0,0,0-.259-.086c-.086,0-.173.043-.173.086a1.746,1.746,0,0,0-.129.431H469.8v-2.458h.129a2.946,2.946,0,0,0,.949,1.682,2.6,2.6,0,0,0,1.725.561,2.007,2.007,0,0,0,1.208-.3,1.644,1.644,0,0,0,.647-.69,1.869,1.869,0,0,0,.173-.819,1.888,1.888,0,0,0-.518-1.38,6.009,6.009,0,0,0-1.553-1.078c-.474-.259-.82-.474-1.078-.6a3.941,3.941,0,0,1-.69-.561,2.142,2.142,0,0,1-.561-.82,2.825,2.825,0,0,1-.216-1.078,2.528,2.528,0,0,1,.388-1.337,2.771,2.771,0,0,1,1.078-1.035,3.191,3.191,0,0,1,1.553-.388,4.81,4.81,0,0,1,1.337.216.64.64,0,0,0,.3.043c.129,0,.259-.086.3-.3h.129v2.114Z" transform="translate(-271.994 -385.657)"/><path class="a" d="M543.76,389.309v.129a1.535,1.535,0,0,0-.82.216,1.736,1.736,0,0,0-.561.561,5.753,5.753,0,0,0-.518,1.035,12.5,12.5,0,0,1-.518,1.208c-.13.3-.259.518-.345.69a3.709,3.709,0,0,1-.3.431c.043.043.216.173.517.474s.561.518.776.733a3.34,3.34,0,0,0,1.165.776,1.868,1.868,0,0,0,.819.172v.129h-2.114c-.776-.6-1.337-1.121-1.725-1.466a5.792,5.792,0,0,1-1.165,1.078,3.08,3.08,0,0,1-1.855.6,3,3,0,0,1-1.078-.216,2.3,2.3,0,0,1-.863-.561,2.531,2.531,0,0,1-.561-.82,2.349,2.349,0,0,1-.216-.949,2.8,2.8,0,0,1,.6-1.725,5.106,5.106,0,0,1,1.423-1.294l-.086-.086a8.667,8.667,0,0,1-.949-1.251,2.439,2.439,0,0,1-.345-1.208,2.414,2.414,0,0,1,.345-1.165,2.489,2.489,0,0,1,.906-.863,2.635,2.635,0,0,1,1.294-.345,2.25,2.25,0,0,1,1.553.518,1.68,1.68,0,0,1,.6,1.294,2.093,2.093,0,0,1-.647,1.51,9.764,9.764,0,0,1-1.6,1.251c.216.259.6.647,1.078,1.165l.992,1.035c.388.388.733.733,1.035.992a7.871,7.871,0,0,0,.776-1.6,5.327,5.327,0,0,0,.431-1.682.624.624,0,0,0-.216-.561,1.079,1.079,0,0,0-.561-.129v-.129h2.717Zm-7.117,1.423a2.719,2.719,0,0,0-1.423,2.243,2.44,2.44,0,0,0,.345,1.208,3.035,3.035,0,0,0,.949.863,2.348,2.348,0,0,0,1.165.3,2.321,2.321,0,0,0,.949-.172,3,3,0,0,0,.733-.431c.216-.172.388-.345.6-.518-.388-.388-.69-.647-.906-.863l-.647-.647c-.216-.216-.474-.475-.733-.776C537.419,391.6,537.074,391.207,536.643,390.733Zm.6-.82a6.9,6.9,0,0,0,1.165-.949,1.77,1.77,0,0,0,.431-1.251,2.124,2.124,0,0,0-.216-.863,1.73,1.73,0,0,0-.6-.647,1.555,1.555,0,0,0-.863-.259,1.4,1.4,0,0,0-1.035.388,1.3,1.3,0,0,0-.345.949,2.519,2.519,0,0,0,.216.863,4.236,4.236,0,0,0,.561.949A4.582,4.582,0,0,0,537.247,389.913Z" transform="translate(-308.73 -385.6)"/><path class="a" d="M612.462,387.813h-.129a1.874,1.874,0,0,0-.647-1.251,1.948,1.948,0,0,0-1.423-.561,2.048,2.048,0,0,0-1.035.259,1.882,1.882,0,0,0-.69.733,2.215,2.215,0,0,0-.259,1.078,2.333,2.333,0,0,0,.129.82,1.706,1.706,0,0,0,.431.647,4.8,4.8,0,0,0,.69.518c.259.172.6.345,1.035.6a8.511,8.511,0,0,1,1.725,1.208,2.25,2.25,0,0,1,.6,1.639,2.646,2.646,0,0,1-1.337,2.243,3.179,3.179,0,0,1-1.639.388,3.885,3.885,0,0,1-1.078-.129,4.4,4.4,0,0,1-.949-.388,1.7,1.7,0,0,0-.259-.086c-.086,0-.172.043-.172.086a1.748,1.748,0,0,0-.129.431H607.2v-2.458h.129a2.947,2.947,0,0,0,.949,1.682,2.6,2.6,0,0,0,1.725.561,2.008,2.008,0,0,0,1.208-.3,1.646,1.646,0,0,0,.647-.69,1.869,1.869,0,0,0,.172-.819,1.888,1.888,0,0,0-.518-1.38,6.01,6.01,0,0,0-1.553-1.078c-.474-.259-.819-.474-1.078-.6a3.941,3.941,0,0,1-.69-.561,2.144,2.144,0,0,1-.561-.82,2.826,2.826,0,0,1-.216-1.078,2.528,2.528,0,0,1,.388-1.337,2.771,2.771,0,0,1,1.078-1.035,3.191,3.191,0,0,1,1.553-.388,4.809,4.809,0,0,1,1.337.216.64.64,0,0,0,.3.043c.129,0,.259-.086.3-.3h.129v2.114Z" transform="translate(-350.13 -385.657)"/><path class="a" d="M642,386.329V386.2h3.278a5,5,0,0,1,1.466.216,2.442,2.442,0,0,1,1.035.6,2.85,2.85,0,0,1,.6.863,2.776,2.776,0,0,1,.216,1.035,2.527,2.527,0,0,1-.173.992,2.4,2.4,0,0,1-.6.863,3.208,3.208,0,0,1-1.078.6,5.4,5.4,0,0,1-1.553.216c-.172,0-.561-.043-1.078-.086v3.451a.959.959,0,0,0,1.078,1.078v.129H642v-.129a1.2,1.2,0,0,0,.776-.259.96.96,0,0,0,.3-.82v-7.548a1.08,1.08,0,0,0-.129-.561,1.191,1.191,0,0,0-.259-.345.49.49,0,0,0-.345-.129.758.758,0,0,0-.259-.043Zm2.113.216v4.7a8.376,8.376,0,0,0,1.035.086,2.568,2.568,0,0,0,1.639-.518,2.249,2.249,0,0,0,.69-1.855,2.779,2.779,0,0,0-.6-1.812,2.215,2.215,0,0,0-1.812-.733C644.717,386.459,644.415,386.5,644.113,386.545Z" transform="translate(-369.92 -385.941)"/><path class="a" d="M680.56,385.9l2.976,8.583a5.17,5.17,0,0,0,.431.949.824.824,0,0,0,.388.388,1.549,1.549,0,0,0,.474.086v.129h-3.278v-.129a3.216,3.216,0,0,0,.776-.086q.259-.065.259-.518a1.9,1.9,0,0,0-.129-.6c0-.043-.043-.043-.043-.086l-.906-2.674h-3.451l-.776,2.458a2.315,2.315,0,0,0-.173.82.624.624,0,0,0,.216.561,1.143,1.143,0,0,0,.6.129v.129H675.6v-.129a1.335,1.335,0,0,0,.82-.388,2.316,2.316,0,0,0,.518-1.035l2.8-8.583Zm-2.286,5.693h3.192l-1.639-4.745h-.043Z" transform="translate(-389.027 -385.771)"/></g><g transform="translate(114.474)"><g transform="translate(26.915 33.298)"><path class="a" d="M343.026,112.526l-.949-.647c-9.23-6.168-14.277-14.449-14.277-23.292a23.7,23.7,0,0,1,.733-5.694l.129-.561.474-.345a22.539,22.539,0,0,1,27.777,0l.474.345.129.561a23.7,23.7,0,0,1,.733,5.694c0,8.842-5.09,17.124-14.277,23.292l-.949.647Zm-11.818-23.9c0,7.376,4.184,13.069,11.818,18.5,7.634-5.435,11.818-11.128,11.818-18.5a33.9,33.9,0,0,0-.345-5.521c-5.823-5.133-15.053-5-22.817-.474A56.355,56.355,0,0,0,331.207,88.63Z" transform="translate(-327.8 -77.2)"/></g><g transform="translate(23.119 22.526)"><path class="a" d="M319,53.853c.518-1.035-.216-2.027,1.768-1.467,1.38,2.459,9.7,10.266,17.124,10.309,1.035.561.259,1.812.259,1.812-.474.043.949-.216-2.415-.431C329.912,62.565,319.259,55.017,319,53.853Z" transform="translate(-319 -52.224)"/></g><g transform="translate(42.163 22.526)"><path class="a" d="M382.582,53.853c-.518-1.035.216-2.027-1.768-1.467-1.38,2.459-9.7,10.266-17.124,10.309-1.035.561-.259,1.812-.259,1.812.474.043-.949-.216,2.415-.431C371.67,62.565,382.324,55.017,382.582,53.853Z" transform="translate(-363.152 -52.224)"/></g><g transform="translate(40.846 12.134)"><path class="a" d="M362.514,28.549c-1.121-.086-1.639-1.251-2.2.733,1.38,2.459,3.666,13.673-.216,19.97-.043,1.165,1.423,1.165,1.423,1.165.3-.388-.69.69.863-2.286C364.239,42.352,363.377,29.369,362.514,28.549Z" transform="translate(-360.098 -28.132)"/></g><path class="a" d="M385.125,35.482l-.3-1.682-1.682.3A32.629,32.629,0,0,0,358.9,53.037a15.4,15.4,0,0,1,3.623.3,29.976,29.976,0,0,1,2.286-3.925C368.95,43.5,376.153,38.286,383.1,36.647c.82,7.117-2.113,15.312-6.3,21.221a27.7,27.7,0,0,1-2.847,3.407,25.416,25.416,0,0,1-.086,4.745,34.186,34.186,0,0,0,5.737-6.211A32.135,32.135,0,0,0,385.125,35.482Z" transform="translate(-318.571 -19.221)"/><path class="a" d="M317.246,61.075a35.668,35.668,0,0,1-2.8-3.407c-4.141-5.909-7.031-14.147-6.168-21.221,6.944,1.682,14.1,6.9,18.245,12.81a31.384,31.384,0,0,1,2.157,3.666,14.107,14.107,0,0,1,3.925.345,31.686,31.686,0,0,0-3.278-5.909A32.164,32.164,0,0,0,308.318,33.9l-1.682-.3-.3,1.682a32.523,32.523,0,0,0,5.348,24.37,31.735,31.735,0,0,0,5.564,6.168A24.8,24.8,0,0,1,317.246,61.075Z" transform="translate(-288.39 -19.107)"/><path class="a" d="M417.707,79.5A35.756,35.756,0,0,0,398.9,76.913c-.6,1.294-1.251,2.545-1.9,3.709,5.952-1.165,11.861-2.027,17.167-.129-4.141,4.96-9.877,10.007-16.735,11.861a36.937,36.937,0,0,1-6.47,1.121,30.146,30.146,0,0,1-1.165,3.494,38.685,38.685,0,0,0,8.54-1.337,36.047,36.047,0,0,0,20.1-13.587l1.208-1.682Z" transform="translate(-336.143 -43.571)"/><path class="a" d="M354.782,22.472c.992-.69,3.105-2.5,4.141-3.062-1.9-7.031-6.427-13.457-13.155-18.633L344.732,0,343.7.776a35.7,35.7,0,0,0-12.9,17.857c.992.561,3.149,2.372,4.1,3.062,1.6-6.039,4.227-13.932,9.834-18.547C350.6,7.98,353.315,16.132,354.782,22.472Z" transform="translate(-302.591)"/><g transform="translate(0 33.054)"><path class="a" d="M287.57,92.362c-6.815-1.855-12.724-6.686-16.865-11.646,5.693-2.027,12.336-1.208,18.72.259-.733-1.165-1.423-2.5-2.114-3.882A35.943,35.943,0,0,0,267.3,79.508l-1.9.863,1.208,1.682a36.264,36.264,0,0,0,20.1,13.587,38.609,38.609,0,0,0,9.36,1.337,23.552,23.552,0,0,1-1.208-3.451A34.715,34.715,0,0,1,287.57,92.362Z" transform="translate(-265.4 -76.632)"/></g><path class="a" d="M362.524,76.731c.949-.6.69-.518,1.164-.086.345,3.8.129,16.865-.6,21.135C362.265,93.251,362.308,79.707,362.524,76.731Z" transform="translate(-320.556 -43.39)"/><path class="a" d="M359.764,76.731c.949-.6.69-.518,1.165-.086a92.757,92.757,0,0,0-2.89,18.288C357.176,90.447,358.513,80.311,359.764,76.731Z" transform="translate(-317.925 -43.39)"/><path class="a" d="M364.265,76.731c-.949-.6-.69-.518-1.165-.086a92.761,92.761,0,0,1,2.89,18.288C366.852,90.447,365.472,80.311,364.265,76.731Z" transform="translate(-320.959 -43.39)"/><path class="a" d="M313.763,97.556c.216.776.216.6-.216.82A95.238,95.238,0,0,1,299.4,93.2C302.635,93.631,311.779,96.694,313.763,97.556Z" transform="translate(-284.735 -53)"/><path class="a" d="M391.513,97.556c-.216.776-.216.6.216.82A95.237,95.237,0,0,0,405.876,93.2C402.6,93.631,393.454,96.694,391.513,97.556Z" transform="translate(-337.037 -53)"/><path class="a" d="M317.469,104.686A70.265,70.265,0,0,1,306.6,102.4a36.418,36.418,0,0,0,10.869,3.321Z" transform="translate(-288.829 -58.232)"/><path class="a" d="M314.6,91.884a32.907,32.907,0,0,0-7.2-1.984,77.963,77.963,0,0,1,7.721,3.106Z" transform="translate(-289.284 -51.124)"/><path class="a" d="M393,104.686a70.264,70.264,0,0,0,10.869-2.286A36.418,36.418,0,0,1,393,105.721Z" transform="translate(-337.963 -58.232)"/><path class="a" d="M400.018,91.884a32.907,32.907,0,0,1,7.2-1.984,77.969,77.969,0,0,0-7.721,3.106Z" transform="translate(-341.659 -51.124)"/></g><g transform="translate(71.341 89.069)"><path class="a" d="M174.285,207.374H168.16a3.5,3.5,0,0,0-1.251.173,2,2,0,0,0-.776.561,3.043,3.043,0,0,0-.431,1.121h-.129V206.9h10.481v.259l-8.885,12.077h6.168a5.069,5.069,0,0,0,1.6-.216,1.724,1.724,0,0,0,.82-.561,4.207,4.207,0,0,0,.518-.906h.129l-.6,2.157H165.4v-.259Z" transform="translate(-165.4 -206.727)"/><path class="a" d="M223,206.5l3.839,10.956a7.271,7.271,0,0,0,.561,1.251,1.04,1.04,0,0,0,.518.474,1.44,1.44,0,0,0,.647.129v.129h-4.184v-.129a2.9,2.9,0,0,0,.992-.129.625.625,0,0,0,.345-.647,1.959,1.959,0,0,0-.173-.776.134.134,0,0,1-.043-.086l-1.121-3.408h-4.443l-1.035,3.149a4.014,4.014,0,0,0-.216,1.035.888.888,0,0,0,.259.733,1.3,1.3,0,0,0,.776.173v.129H216.7v-.129a1.661,1.661,0,0,0,1.035-.474,4.465,4.465,0,0,0,.69-1.294l3.623-11.042H223Zm-2.89,7.289h4.1l-2.07-6.082h-.043Z" transform="translate(-194.573 -206.5)"/><path class="a" d="M283.389,206.9v.129a2.983,2.983,0,0,0-.776.173.935.935,0,0,0-.431.474,3.293,3.293,0,0,0-.173,1.078v11.215h-.086l-9.834-10.956v7.893a11.564,11.564,0,0,0,.086,1.466,1.853,1.853,0,0,0,.216.69,1.312,1.312,0,0,0,1.121.474v.129H270.32v-.129a1.428,1.428,0,0,0,.819-.216,1.122,1.122,0,0,0,.431-.733,7.518,7.518,0,0,0,.129-1.639v-8.368l-.431-.474a4.434,4.434,0,0,0-.906-.82,2.265,2.265,0,0,0-.863-.259V206.9h2.415l9.7,10.869v-8.281a10.04,10.04,0,0,0-.086-1.38,1.116,1.116,0,0,0-.388-.733,1.6,1.6,0,0,0-.992-.3v-.129h3.235Z" transform="translate(-224.599 -206.727)"/><path class="a" d="M337.185,207.374H331.06a3.5,3.5,0,0,0-1.251.173,2,2,0,0,0-.776.561,3.043,3.043,0,0,0-.431,1.121h-.129V206.9h10.481v.259l-8.885,12.077h6.168a5.069,5.069,0,0,0,1.6-.216,1.723,1.723,0,0,0,.82-.561,4.205,4.205,0,0,0,.518-.906h.129l-.6,2.157H328.3v-.259Z" transform="translate(-258.037 -206.727)"/><path class="a" d="M384.854,206.9v.129a1.592,1.592,0,0,0-.992.3,1.312,1.312,0,0,0-.388,1.078v9.748a1.258,1.258,0,0,0,.431,1.078,1.6,1.6,0,0,0,.949.345v.129H380.8v-.129a1.421,1.421,0,0,0,.949-.345,1.312,1.312,0,0,0,.388-1.078v-9.7a1.256,1.256,0,0,0-.388-1.078,1.47,1.47,0,0,0-.949-.3v-.129h4.055Z" transform="translate(-287.892 -206.727)"/><path class="a" d="M422.631,219.767h-4.788v-.129h.173a1.1,1.1,0,0,0,.82-.345,1.494,1.494,0,0,0,.345-1.035V208.6a1.614,1.614,0,0,0-.345-1.078,1.086,1.086,0,0,0-.863-.388H417.8V207h4.184a4.1,4.1,0,0,1,1.51.259,3.141,3.141,0,0,1,1.9,1.6,2.569,2.569,0,0,1,.259,1.165,2.674,2.674,0,0,1-.733,1.9A5.031,5.031,0,0,1,422.89,213v.043a10.085,10.085,0,0,1,1.121.173,4.853,4.853,0,0,1,.949.345,3.456,3.456,0,0,1,.82.561,2.814,2.814,0,0,1,.561.69,2.757,2.757,0,0,1,.345.82,3.284,3.284,0,0,1,.129.906,2.915,2.915,0,0,1-.518,1.725,3.416,3.416,0,0,1-1.165,1.078A6.211,6.211,0,0,1,422.631,219.767Zm-2.113-6.944h.82a3.871,3.871,0,0,0,1.466-.216,2.191,2.191,0,0,0,.561-.388,2.256,2.256,0,0,0,.561-.776,2.816,2.816,0,0,0,.259-1.251,2.978,2.978,0,0,0-.173-1.078,3.1,3.1,0,0,0-.518-.906,3.021,3.021,0,0,0-.82-.647,2.606,2.606,0,0,0-1.035-.216,3.742,3.742,0,0,0-1.121.173Zm1.337.388H420.56v4.615a3.872,3.872,0,0,0,.086.776.768.768,0,0,0,.518.518,2.959,2.959,0,0,0,1.251.216,2.723,2.723,0,0,0,2.5-1.165,3.4,3.4,0,0,0,.518-1.812,3.36,3.36,0,0,0-.259-1.337,2.735,2.735,0,0,0-.69-.992,3.115,3.115,0,0,0-1.121-.6A5.8,5.8,0,0,0,421.854,213.211Z" transform="translate(-308.933 -206.784)"/><path class="a" d="M471.1,206.5l3.839,10.956a7.271,7.271,0,0,0,.561,1.251,1.04,1.04,0,0,0,.518.474,1.44,1.44,0,0,0,.647.129v.129h-4.184v-.129a2.894,2.894,0,0,0,.992-.129.625.625,0,0,0,.345-.647,1.958,1.958,0,0,0-.172-.776.134.134,0,0,1-.043-.086l-1.121-3.408h-4.443L467,217.413a4.013,4.013,0,0,0-.216,1.035.888.888,0,0,0,.259.733,1.3,1.3,0,0,0,.776.173v.129H464.8v-.129a1.661,1.661,0,0,0,1.035-.474,4.464,4.464,0,0,0,.69-1.294l3.623-11.042h.949Zm-2.933,7.289h4.1l-2.07-6.082h-.043Z" transform="translate(-335.661 -206.5)"/><path class="a" d="M519.072,207.073H518.9V206.9h4.443a4.372,4.372,0,0,1,1.812.345,4,4,0,0,1,1.165.819,3.831,3.831,0,0,1,.6,1.078,3.38,3.38,0,0,1,.173,1.121,2.891,2.891,0,0,1-.3,1.337,2.708,2.708,0,0,1-.906,1.078,3.725,3.725,0,0,1-1.51.647v.043a5.483,5.483,0,0,1,2.114,2.2l1.164,1.941a6.105,6.105,0,0,0,1.251,1.639,2.221,2.221,0,0,0,.949.388v.129h-2.329l-.259-.388-.259-.388a2.926,2.926,0,0,0-.259-.388c-.129-.173-.173-.259-.216-.3l-1.51-2.545a4.994,4.994,0,0,0-.949-1.251,3.161,3.161,0,0,0-.906-.69,3.008,3.008,0,0,0-.733-.259,4.2,4.2,0,0,0-.776-.043v4.745a1.282,1.282,0,0,0,1.38,1.423v.129h-4.1v-.129a1.786,1.786,0,0,0,.69-.129.918.918,0,0,0,.474-.431,1.534,1.534,0,0,0,.216-.82v-9.7a1.312,1.312,0,0,0-.388-1.078A1.37,1.37,0,0,0,519.072,207.073Zm2.545,6.082h.733a4.813,4.813,0,0,0,1.9-.345,2.127,2.127,0,0,0,1.078-.949,3.124,3.124,0,0,0,.345-1.51,3.575,3.575,0,0,0-.3-1.466,2.937,2.937,0,0,0-.992-1.208,3.528,3.528,0,0,0-1.9-.474,3.971,3.971,0,0,0-.82.086v5.866Z" transform="translate(-366.426 -206.727)"/></g></svg>